{
    "asset" : {
        "copyright" : "ion",
        "generator" : "Khronos glTF Blender I/O v3.2.40",
        "version" : "2.0"
    },
    "scene" : 0,
    "scenes" : [
        {
            "name" : "Scene",
            "nodes" : [
                0,
                1,
                2,
                3,
                4,
                5
            ]
        }
    ],
    "nodes" : [
        {
            "mesh" : 0,
            "name" : "desk_top",
            "rotation" : [
                0,
                1,
                0,
                0
            ],
            "scale" : [
                -0.3396700322628021,
                -0.014920593239367008,
                -0.7337242364883423
            ],
            "translation" : [
                -0.05283663421869278,
                0.8854597806930542,
                0
            ]
        },
        {
            "mesh" : 1,
            "name" : "legs",
            "rotation" : [
                0,
                0.7071068286895752,
                0,
                0.7071068286895752
            ],
            "scale" : [
                0.0313219279050827,
                0.6946688890457153,
                0.009639782831072807
            ],
            "translation" : [
                -0.8139763474464417,
                0.24462714791297913,
                0
            ]
        },
        {
            "mesh" : 2,
            "name" : "laptop.001",
            "scale" : [
                0.12477612495422363,
                0.00426642457023263,
                0.17825160920619965
            ],
            "translation" : [
                0,
                0.9038789868354797,
                0
            ]
        },
        {
            "mesh" : 3,
            "name" : "keyboard",
            "scale" : [
                0.008488853462040424,
                0.001706831157207489,
                0.008118703030049801
            ],
            "translation" : [
                -0.08664260059595108,
                0.9072983860969543,
                0.12151580303907394
            ]
        },
        {
            "mesh" : 4,
            "name" : "touchpad",
            "scale" : [
                0.1675376296043396,
                0.005728553049266338,
                0.2393394559621811
            ],
            "translation" : [
                0.07100477069616318,
                0.8406206965446472,
                0
            ]
        },
        {
            "mesh" : 5,
            "name" : "laptop.006",
            "scale" : [
                0.12477612495422363,
                0.00426642457023263,
                0.17825160920619965
            ],
            "translation" : [
                0,
                0.9038789868354797,
                0
            ]
        }
    ],
    "materials" : [
        {
            "doubleSided" : true,
            "name" : "Material.002",
            "pbrMetallicRoughness" : {
                "baseColorFactor" : [
                    0.723054826259613,
                    0.4793197214603424,
                    0.25818300247192383,
                    1
                ],
                "metallicFactor" : 0,
                "roughnessFactor" : 0.5
            }
        },
        {
            "doubleSided" : true,
            "name" : "Material.001",
            "pbrMetallicRoughness" : {
                "baseColorFactor" : [
                    0.06918314099311829,
                    0.06351812183856964,
                    0.061845023185014725,
                    1
                ],
                "metallicFactor" : 0,
                "roughnessFactor" : 0.5
            }
        },
        {
            "doubleSided" : true,
            "name" : "Material.006",
            "pbrMetallicRoughness" : {
                "baseColorFactor" : [
                    0.37368008494377136,
                    0.37368008494377136,
                    0.37368008494377136,
                    1
                ],
                "metallicFactor" : 0,
                "roughnessFactor" : 0.5
            }
        },
        {
            "doubleSided" : true,
            "name" : "Material.008",
            "pbrMetallicRoughness" : {
                "baseColorFactor" : [
                    0.15719886124134064,
                    0.15719886124134064,
                    0.15719886124134064,
                    1
                ],
                "metallicFactor" : 0,
                "roughnessFactor" : 0.5
            }
        },
        {
            "doubleSided" : true,
            "name" : "Material.005",
            "pbrMetallicRoughness" : {
                "baseColorFactor" : [
                    0.4837585389614105,
                    0.4837585389614105,
                    0.4837585389614105,
                    1
                ],
                "metallicFactor" : 0,
                "roughnessFactor" : 0.5
            }
        },
        {
            "doubleSided" : true,
            "name" : "Material.010",
            "pbrMetallicRoughness" : {
                "metallicFactor" : 0,
                "roughnessFactor" : 0.5
            }
        }
    ],
    "meshes" : [
        {
            "name" : "Cube.001",
            "primitives" : [
                {
                    "attributes" : {
                        "POSITION" : 0,
                        "NORMAL" : 1,
                        "TANGENT" : 2,
                        "TEXCOORD_0" : 3
                    },
                    "indices" : 4,
                    "material" : 0
                }
            ]
        },
        {
            "name" : "Cube.004",
            "primitives" : [
                {
                    "attributes" : {
                        "POSITION" : 5,
                        "NORMAL" : 6,
                        "TANGENT" : 7,
                        "TEXCOORD_0" : 8
                    },
                    "indices" : 9,
                    "material" : 1
                }
            ]
        },
        {
            "name" : "Cube.006",
            "primitives" : [
                {
                    "attributes" : {
                        "POSITION" : 10,
                        "NORMAL" : 11,
                        "TEXCOORD_0" : 12
                    },
                    "indices" : 13,
                    "material" : 2
                }
            ]
        },
        {
            "name" : "Cube.008",
            "primitives" : [
                {
                    "attributes" : {
                        "POSITION" : 14,
                        "NORMAL" : 15,
                        "TANGENT" : 16,
                        "TEXCOORD_0" : 17
                    },
                    "indices" : 18,
                    "material" : 3
                }
            ]
        },
        {
            "name" : "Cube.009",
            "primitives" : [
                {
                    "attributes" : {
                        "POSITION" : 19,
                        "NORMAL" : 20,
                        "TEXCOORD_0" : 21
                    },
                    "indices" : 22,
                    "material" : 4
                }
            ]
        },
        {
            "name" : "Cube.003",
            "primitives" : [
                {
                    "attributes" : {
                        "POSITION" : 23,
                        "NORMAL" : 24,
                        "TEXCOORD_0" : 25
                    },
                    "indices" : 26,
                    "material" : 5
                }
            ]
        }
    ],
    "accessors" : [
        {
            "bufferView" : 0,
            "componentType" : 5126,
            "count" : 224,
            "max" : [
                0.9773748517036438,
                1,
                0.9749123454093933
            ],
            "min" : [
                -0.9773748517036438,
                -1,
                -0.9749123454093933
            ],
            "type" : "VEC3"
        },
        {
            "bufferView" : 1,
            "componentType" : 5126,
            "count" : 224,
            "type" : "VEC3"
        },
        {
            "bufferView" : 2,
            "componentType" : 5126,
            "count" : 224,
            "type" : "VEC4"
        },
        {
            "bufferView" : 3,
            "componentType" : 5126,
            "count" : 224,
            "type" : "VEC2"
        },
        {
            "bufferView" : 4,
            "componentType" : 5123,
            "count" : 324,
            "type" : "SCALAR"
        },
        {
            "bufferView" : 5,
            "componentType" : 5126,
            "count" : 168,
            "max" : [
                21.751609802246094,
                0.9131105542182922,
                109.80290222167969
            ],
            "min" : [
                -21.75161361694336,
                0.17776213586330414,
                48.11347961425781
            ],
            "type" : "VEC3"
        },
        {
            "bufferView" : 6,
            "componentType" : 5126,
            "count" : 168,
            "type" : "VEC3"
        },
        {
            "bufferView" : 7,
            "componentType" : 5126,
            "count" : 168,
            "type" : "VEC4"
        },
        {
            "bufferView" : 8,
            "componentType" : 5126,
            "count" : 168,
            "type" : "VEC2"
        },
        {
            "bufferView" : 9,
            "componentType" : 5123,
            "count" : 252,
            "type" : "SCALAR"
        },
        {
            "bufferView" : 10,
            "componentType" : 5126,
            "count" : 444,
            "max" : [
                1,
                58.66587829589844,
                0.9999999403953552
            ],
            "min" : [
                -1.3935000896453857,
                -0.9999846816062927,
                -0.9999999403953552
            ],
            "type" : "VEC3"
        },
        {
            "bufferView" : 11,
            "componentType" : 5126,
            "count" : 444,
            "type" : "VEC3"
        },
        {
            "bufferView" : 12,
            "componentType" : 5126,
            "count" : 444,
            "type" : "VEC2"
        },
        {
            "bufferView" : 13,
            "componentType" : 5123,
            "count" : 816,
            "type" : "SCALAR"
        },
        {
            "bufferView" : 14,
            "componentType" : 5126,
            "count" : 72,
            "max" : [
                1,
                1,
                1
            ],
            "min" : [
                -1,
                -1,
                -30.899995803833008
            ],
            "type" : "VEC3"
        },
        {
            "bufferView" : 15,
            "componentType" : 5126,
            "count" : 72,
            "type" : "VEC3"
        },
        {
            "bufferView" : 16,
            "componentType" : 5126,
            "count" : 72,
            "type" : "VEC4"
        },
        {
            "bufferView" : 17,
            "componentType" : 5126,
            "count" : 72,
            "type" : "VEC2"
        },
        {
            "bufferView" : 18,
            "componentType" : 5123,
            "count" : 108,
            "type" : "SCALAR"
        },
        {
            "bufferView" : 19,
            "componentType" : 5126,
            "count" : 20,
            "max" : [
                0.260601282119751,
                11.93679141998291,
                0.2606011927127838
            ],
            "min" : [
                -0.26060131192207336,
                11.93679141998291,
                -0.26060131192207336
            ],
            "type" : "VEC3"
        },
        {
            "bufferView" : 20,
            "componentType" : 5126,
            "count" : 20,
            "type" : "VEC3"
        },
        {
            "bufferView" : 21,
            "componentType" : 5126,
            "count" : 20,
            "type" : "VEC2"
        },
        {
            "bufferView" : 22,
            "componentType" : 5123,
            "count" : 54,
            "type" : "SCALAR"
        },
        {
            "bufferView" : 23,
            "componentType" : 5126,
            "count" : 20,
            "max" : [
                -0.9908062219619751,
                57.28361511230469,
                0.964716374874115
            ],
            "min" : [
                -1.352318286895752,
                2.4657440185546875,
                -0.964716374874115
            ],
            "type" : "VEC3"
        },
        {
            "bufferView" : 24,
            "componentType" : 5126,
            "count" : 20,
            "type" : "VEC3"
        },
        {
            "bufferView" : 25,
            "componentType" : 5126,
            "count" : 20,
            "type" : "VEC2"
        },
        {
            "bufferView" : 26,
            "componentType" : 5123,
            "count" : 54,
            "type" : "SCALAR"
        }
    ],
    "bufferViews" : [
        {
            "buffer" : 0,
            "byteLength" : 2688,
            "byteOffset" : 0
        },
        {
            "buffer" : 0,
            "byteLength" : 2688,
            "byteOffset" : 2688
        },
        {
            "buffer" : 0,
            "byteLength" : 3584,
            "byteOffset" : 5376
        },
        {
            "buffer" : 0,
            "byteLength" : 1792,
            "byteOffset" : 8960
        },
        {
            "buffer" : 0,
            "byteLength" : 648,
            "byteOffset" : 10752
        },
        {
            "buffer" : 0,
            "byteLength" : 2016,
            "byteOffset" : 11400
        },
        {
            "buffer" : 0,
            "byteLength" : 2016,
            "byteOffset" : 13416
        },
        {
            "buffer" : 0,
            "byteLength" : 2688,
            "byteOffset" : 15432
        },
        {
            "buffer" : 0,
            "byteLength" : 1344,
            "byteOffset" : 18120
        },
        {
            "buffer" : 0,
            "byteLength" : 504,
            "byteOffset" : 19464
        },
        {
            "buffer" : 0,
            "byteLength" : 5328,
            "byteOffset" : 19968
        },
        {
            "buffer" : 0,
            "byteLength" : 5328,
            "byteOffset" : 25296
        },
        {
            "buffer" : 0,
            "byteLength" : 3552,
            "byteOffset" : 30624
        },
        {
            "buffer" : 0,
            "byteLength" : 1632,
            "byteOffset" : 34176
        },
        {
            "buffer" : 0,
            "byteLength" : 864,
            "byteOffset" : 35808
        },
        {
            "buffer" : 0,
            "byteLength" : 864,
            "byteOffset" : 36672
        },
        {
            "buffer" : 0,
            "byteLength" : 1152,
            "byteOffset" : 37536
        },
        {
            "buffer" : 0,
            "byteLength" : 576,
            "byteOffset" : 38688
        },
        {
            "buffer" : 0,
            "byteLength" : 216,
            "byteOffset" : 39264
        },
        {
            "buffer" : 0,
            "byteLength" : 240,
            "byteOffset" : 39480
        },
        {
            "buffer" : 0,
            "byteLength" : 240,
            "byteOffset" : 39720
        },
        {
            "buffer" : 0,
            "byteLength" : 160,
            "byteOffset" : 39960
        },
        {
            "buffer" : 0,
            "byteLength" : 108,
            "byteOffset" : 40120
        },
        {
            "buffer" : 0,
            "byteLength" : 240,
            "byteOffset" : 40228
        },
        {
            "buffer" : 0,
            "byteLength" : 240,
            "byteOffset" : 40468
        },
        {
            "buffer" : 0,
            "byteLength" : 160,
            "byteOffset" : 40708
        },
        {
            "buffer" : 0,
            "byteLength" : 108,
            "byteOffset" : 40868
        }
    ],
    "buffers" : [
        {
            "byteLength" : 40976,
            "uri" : "data:application/octet-stream;base64,"
        }
    ]
}
